<svg xmlns="http://www.w3.org/2000/svg" viewBox="0 0 400 300" role="img" aria-label="Dental bridge illustration">
  <rect width="400" height="300" rx="16" fill="#eff6ff"/>
  <g fill="#ffffff" stroke="#2563eb" stroke-width="5">
    <path d="M130,110 C108,110 96,128 99,148 C101,163 106,176 110,194 C112,203 120,206 123,196 C125,190 129,187 136,187 C143,187 147,190 149,196 C152,206 160,203 162,194 C166,176 171,163 173,148 C176,128 152,110 130,110 Z"/>
    <path d="M200,100 C176,100 163,120 166,142 C168,159 174,173 178,192 C180,202 189,205 192,195 C195,188 200,185 207,185 C214,185 219,188 222,195 C225,205 234,202 236,192 C240,173 246,159 248,142 C251,120 224,100 200,100 Z"/>
    <path d="M270,110 C248,110 236,128 239,148 C241,163 246,176 250,194 C252,203 260,206 263,196 C265,190 269,187 276,187 C283,187 287,190 289,196 C292,206 300,203 302,194 C306,176 311,163 313,148 C316,128 292,110 270,110 Z"/>
  </g>
  <line x1="130" y1="150" x2="270" y2="150" stroke="#2563eb" stroke-width="6" stroke-linecap="round"/>
</svg>
