<svg xmlns="http://www.w3.org/2000/svg" viewBox="0 0 400 300" role="img" aria-label="Routine dental cleaning illustration">
  <rect width="400" height="300" rx="16" fill="#ecfdf5"/>
  <path d="M200,90 C160,90 140,120 145,150 C148,170 155,190 160,215 C163,230 175,235 180,220 C183,210 188,205 200,205 C212,205 217,210 220,220 C225,235 237,230 240,215 C245,190 252,170 255,150 C260,120 240,90 200,90 Z"
        fill="#ffffff" stroke="#059669" stroke-width="6"/>
  <g stroke="#059669" stroke-width="5" stroke-linecap="round">
    <line x1="275" y1="110" x2="295" y2="90"/>
    <line x1="290" y1="130" x2="310" y2="115"/>
    <line x1="270" y1="140" x2="286" y2="126"/>
  </g>
  <g fill="#059669">
    <path d="M120,90 l6,14 l14,4 l-14,4 l-6,14 l-6,-14 l-14,-4 l14,-4 Z"/>
  </g>
</svg>
