<svg xmlns="http://www.w3.org/2000/svg" viewBox="0 0 400 300" role="img" aria-label="Orthodontic consultation illustration">
  <rect width="400" height="300" rx="16" fill="#f0fdf4"/>
  <path d="M200,90 C160,90 140,120 145,150 C148,170 155,190 160,215 C163,230 175,235 180,220 C183,210 188,205 200,205 C212,205 217,210 220,220 C225,235 237,230 240,215 C245,190 252,170 255,150 C260,120 240,90 200,90 Z"
        fill="#ffffff" stroke="#16a34a" stroke-width="6"/>
  <line x1="150" y1="150" x2="250" y2="150" stroke="#16a34a" stroke-width="5" stroke-linecap="round"/>
  <rect x="165" y="142" width="16" height="16" rx="3" fill="#bbf7d0" stroke="#16a34a" stroke-width="3"/>
  <rect x="219" y="142" width="16" height="16" rx="3" fill="#bbf7d0" stroke="#16a34a" stroke-width="3"/>
</svg>
