<svg xmlns="http://www.w3.org/2000/svg" viewBox="0 0 400 300" role="img" aria-label="Teeth whitening illustration">
  <rect width="400" height="300" rx="16" fill="#fefce8"/>
  <g stroke="#eab308" stroke-width="5" stroke-linecap="round">
    <line x1="200" y1="60" x2="200" y2="40"/>
    <line x1="245" y1="75" x2="260" y2="60"/>
    <line x1="155" y1="75" x2="140" y2="60"/>
    <line x1="265" y1="105" x2="285" y2="100"/>
    <line x1="135" y1="105" x2="115" y2="100"/>
  </g>
  <path d="M200,95 C160,95 140,125 145,155 C148,175 155,195 160,220 C163,235 175,240 180,225 C183,215 188,210 200,210 C212,210 217,215 220,225 C225,240 237,235 240,220 C245,195 252,175 255,155 C260,125 240,95 200,95 Z"
        fill="#ffffff" stroke="#eab308" stroke-width="6"/>
</svg>
