<svg xmlns="http://www.w3.org/2000/svg" viewBox="0 0 400 300" role="img" aria-label="Tooth extraction illustration">
  <rect width="400" height="300" rx="16" fill="#f5f3ff"/>
  <path d="M175,100 C140,105 125,132 132,158 C136,175 143,190 149,210 C153,222 164,225 168,213 C171,204 177,199 187,200 C197,201 202,207 204,217 C207,229 218,225 219,212 C221,188 224,166 224,148 C223,120 210,95 175,100 Z"
        fill="#ffffff" stroke="#7c3aed" stroke-width="6" transform="rotate(-18 178 155)"/>
  <g stroke="#7c3aed" stroke-width="4" stroke-dasharray="2 10" stroke-linecap="round">
    <line x1="255" y1="120" x2="310" y2="90"/>
    <line x1="260" y1="150" x2="320" y2="135"/>
  </g>
  <path d="M320 125 l14 8 l-16 6 Z" fill="#7c3aed"/>
</svg>
